<svg width="48" height="48" viewBox="0 0 48 48" fill="none" xmlns="http://www.w3.org/2000/svg">
<path fill-rule="evenodd" clip-rule="evenodd" d="M6 46.5V6C6 2.68629 8.68629 0 12 0H36C39.3137 0 42 2.68629 42 6V46.5C42 47.0294 41.7209 47.5196 41.2657 47.7898C40.8105 48.0601 40.2465 48.0704 39.7817 47.8168L24 39.2086L8.21828 47.8168C7.75352 48.0704 7.18954 48.0601 6.7343 47.7898C6.27907 47.5196 6 47.0294 6 46.5ZM24.478 12.2972C24.2825 11.9009 23.7175 11.9009 23.522 12.2972L21.6173 16.1564C21.5397 16.3137 21.3896 16.4228 21.2159 16.448L16.957 17.0669C16.5198 17.1304 16.3452 17.6677 16.6616 17.9762L19.7434 20.9802C19.869 21.1026 19.9263 21.2791 19.8967 21.452L19.1692 25.6937C19.0945 26.1292 19.5515 26.4613 19.9426 26.2557L23.7519 24.253C23.9072 24.1714 24.0928 24.1714 24.2481 24.253L28.0574 26.2557C28.4485 26.4613 28.9055 26.1292 28.8308 25.6937L28.1033 21.452C28.0737 21.2791 28.131 21.1026 28.2566 20.9802L31.3384 17.9762C31.6548 17.6677 31.4802 17.1304 31.043 17.0669L26.7841 16.448C26.6104 16.4228 26.4603 16.3137 26.3827 16.1564L24.478 12.2972Z" fill="#F15445"/>
</svg>
