<svg width="48" height="48" viewBox="0 0 48 48" fill="none" xmlns="http://www.w3.org/2000/svg">
<path d="M42 3C43.6569 3 45 4.34315 45 6V30C45 31.6569 43.6569 33 42 33H13.2426C11.6513 33 10.1252 33.6321 9 34.7574L3 40.7574V6C3 4.34315 4.34315 3 6 3H42ZM6 0C2.68629 0 0 2.68629 0 6V44.3787C0 45.715 1.61571 46.3843 2.56066 45.4393L11.1213 36.8787C11.6839 36.3161 12.447 36 13.2426 36H42C45.3137 36 48 33.3137 48 30V6C48 2.68629 45.3137 0 42 0H6Z" fill="#F15445"/>
<path d="M24 11.9783C28.9932 6.84601 41.4761 15.8274 24 27.375C6.52394 15.8274 19.0068 6.84601 24 11.9783Z" fill="#F15445"/>
</svg>
