<svg width="48" height="48" viewBox="0 0 48 48" fill="none" xmlns="http://www.w3.org/2000/svg">
<path d="M37.5 48C43.299 48 48 43.299 48 37.5C48 31.701 43.299 27 37.5 27C31.701 27 27 31.701 27 37.5C27 43.299 31.701 48 37.5 48ZM39 33V36H42C42.8284 36 43.5 36.6716 43.5 37.5C43.5 38.3284 42.8284 39 42 39H39V42C39 42.8284 38.3284 43.5 37.5 43.5C36.6716 43.5 36 42.8284 36 42V39H33C32.1716 39 31.5 38.3284 31.5 37.5C31.5 36.6716 32.1716 36 33 36H36V33C36 32.1716 36.6716 31.5 37.5 31.5C38.3284 31.5 39 32.1716 39 33Z" fill="#F15445"/>
<path d="M33 15C33 19.9706 28.9706 24 24 24C19.0294 24 15 19.9706 15 15C15 10.0294 19.0294 6 24 6C28.9706 6 33 10.0294 33 15Z" fill="#F15445"/>
<path d="M6 39C6 42 9 42 9 42H24.7682C24.2707 40.5925 24 39.0779 24 37.5C24 33.439 25.7931 29.7968 28.6308 27.322C27.2312 27.1145 25.692 27 24 27C9 27 6 36 6 39Z" fill="#F15445"/>
</svg>
