<svg width="32" height="32" viewBox="0 0 32 32" fill="none" xmlns="http://www.w3.org/2000/svg">
<path fill-rule="evenodd" clip-rule="evenodd" d="M2 16C2 23.732 8.26801 30 16 30C23.732 30 30 23.732 30 16C30 8.26801 23.732 2 16 2C8.26801 2 2 8.26801 2 16ZM32 16C32 24.8366 24.8366 32 16 32C7.16344 32 0 24.8366 0 16C0 7.16344 7.16344 0 16 0C24.8366 0 32 7.16344 32 16ZM19.5459 9.06066C20.1317 8.47487 20.1317 7.52513 19.5459 6.93934C18.9602 6.35355 18.0104 6.35355 17.4246 6.93934L8.93934 15.4246C8.35355 16.0104 8.35355 16.9602 8.93934 17.5459L17.4246 26.0312C18.0104 26.617 18.9602 26.617 19.5459 26.0312C20.1317 25.4454 20.1317 24.4957 19.5459 23.9099L12.1213 16.4853L19.5459 9.06066Z" fill="#F5A70A"/>
</svg>
