<svg width="32" height="32" viewBox="0 0 32 32" fill="none" xmlns="http://www.w3.org/2000/svg">
<path fill-rule="evenodd" clip-rule="evenodd" d="M2 16C2 23.732 8.26801 30 16 30C23.732 30 30 23.732 30 16C30 8.26801 23.732 2 16 2C8.26801 2 2 8.26801 2 16ZM32 16C32 24.8366 24.8366 32 16 32C7.16344 32 0 24.8366 0 16C0 7.16344 7.16344 0 16 0C24.8366 0 32 7.16344 32 16ZM12.4246 23.9099C11.8388 24.4957 11.8388 25.4454 12.4246 26.0312C13.0104 26.617 13.9602 26.617 14.5459 26.0312L23.0312 17.5459C23.617 16.9602 23.617 16.0104 23.0312 15.4246L14.5459 6.93934C13.9602 6.35355 13.0104 6.35355 12.4246 6.93934C11.8388 7.52513 11.8388 8.47487 12.4246 9.06066L19.8492 16.4853L12.4246 23.9099Z" fill="#F5A70A"/>
</svg>
