<svg width="32" height="32" viewBox="0 0 32 32" fill="none" xmlns="http://www.w3.org/2000/svg">
<path fill-rule="evenodd" clip-rule="evenodd" d="M32 16C32 24.8366 24.8366 32 16 32C7.16344 32 0 24.8366 0 16C0 7.16344 7.16344 0 16 0C24.8366 0 32 7.16344 32 16ZM12.4247 23.91C11.8389 24.4958 11.8389 25.4456 12.4247 26.0314C13.0105 26.6171 13.9602 26.6171 14.546 26.0314L23.0313 17.5461C23.6171 16.9603 23.6171 16.0105 23.0313 15.4248L14.546 6.93948C13.9602 6.35369 13.0105 6.35369 12.4247 6.93948C11.8389 7.52527 11.8389 8.47501 12.4247 9.0608L19.8493 16.4854L12.4247 23.91Z" fill="#F15445"/>
</svg>
