<svg width="32" height="32" viewBox="0 0 32 32" fill="none" xmlns="http://www.w3.org/2000/svg">
<path fill-rule="evenodd" clip-rule="evenodd" d="M32 16C32 24.8366 24.8366 32 16 32C7.16344 32 0 24.8366 0 16C0 7.16344 7.16344 0 16 0C24.8366 0 32 7.16344 32 16ZM19.546 9.06066C20.1318 8.47487 20.1318 7.52513 19.546 6.93934C18.9602 6.35355 18.0105 6.35355 17.4247 6.93934L8.93941 15.4246C8.35362 16.0104 8.35362 16.9602 8.93941 17.5459L17.4247 26.0312C18.0105 26.617 18.9602 26.617 19.546 26.0312C20.1318 25.4454 20.1318 24.4957 19.546 23.9099L12.1214 16.4853L19.546 9.06066Z" fill="#F15445"/>
</svg>
